<mxfile host="app.diagrams.net" modified="2024-01-12T09:42:17.352Z" agent="Mozilla/5.0 (Windows NT 10.0; Win64; x64) AppleWebKit/537.36 (KHTML, like Gecko) Chrome/120.0.0.0 Safari/537.36 Edg/120.0.0.0" version="22.1.18" etag="r7KmiYmm92aoe9PR6Knx" type="device">
  <diagram id="Jl4Iu48stJYrcyQotxah" name="Page-1">
    <mxGraphModel dx="1212" dy="666" grid="1" gridSize="10" guides="1" tooltips="1" connect="1" arrows="1" fold="1" page="1" pageScale="1" pageWidth="1169" pageHeight="827" math="0" shadow="0">
      <root>
        <mxCell id="0" />
        <mxCell id="1" parent="0" />
        <mxCell id="gAbfw7ZydBA9syyE7m_C-2" value="" style="shape=table;startSize=0;container=1;collapsible=0;childLayout=tableLayout;fontSize=16;" vertex="1" parent="1">
          <mxGeometry x="330" y="170" width="330" height="434" as="geometry" />
        </mxCell>
        <mxCell id="gAbfw7ZydBA9syyE7m_C-3" value="" style="shape=tableRow;horizontal=0;startSize=70;swimlaneHead=0;swimlaneBody=0;strokeColor=inherit;top=0;left=0;bottom=0;right=0;collapsible=0;dropTarget=0;fillColor=none;points=[[0,0.5],[1,0.5]];portConstraint=eastwest;fontSize=16;" vertex="1" parent="gAbfw7ZydBA9syyE7m_C-2">
          <mxGeometry width="330" height="87" as="geometry" />
        </mxCell>
        <mxCell id="gAbfw7ZydBA9syyE7m_C-4" value="" style="shape=partialRectangle;html=1;whiteSpace=wrap;connectable=0;strokeColor=inherit;overflow=hidden;fillColor=none;top=0;left=0;bottom=0;right=0;pointerEvents=1;fontSize=16;" vertex="1" parent="gAbfw7ZydBA9syyE7m_C-3">
          <mxGeometry x="70" width="88" height="87" as="geometry">
            <mxRectangle width="88" height="87" as="alternateBounds" />
          </mxGeometry>
        </mxCell>
        <mxCell id="gAbfw7ZydBA9syyE7m_C-5" value="" style="shape=partialRectangle;html=1;whiteSpace=wrap;connectable=0;strokeColor=inherit;overflow=hidden;fillColor=none;top=0;left=0;bottom=0;right=0;pointerEvents=1;fontSize=16;" vertex="1" parent="gAbfw7ZydBA9syyE7m_C-3">
          <mxGeometry x="158" width="84" height="87" as="geometry">
            <mxRectangle width="84" height="87" as="alternateBounds" />
          </mxGeometry>
        </mxCell>
        <mxCell id="gAbfw7ZydBA9syyE7m_C-6" value="" style="shape=partialRectangle;html=1;whiteSpace=wrap;connectable=0;strokeColor=inherit;overflow=hidden;fillColor=none;top=0;left=0;bottom=0;right=0;pointerEvents=1;fontSize=16;" vertex="1" parent="gAbfw7ZydBA9syyE7m_C-3">
          <mxGeometry x="242" width="88" height="87" as="geometry">
            <mxRectangle width="88" height="87" as="alternateBounds" />
          </mxGeometry>
        </mxCell>
        <mxCell id="gAbfw7ZydBA9syyE7m_C-7" value="" style="shape=tableRow;horizontal=0;startSize=70;swimlaneHead=0;swimlaneBody=0;strokeColor=inherit;top=0;left=0;bottom=0;right=0;collapsible=0;dropTarget=0;fillColor=none;points=[[0,0.5],[1,0.5]];portConstraint=eastwest;fontSize=16;" vertex="1" parent="gAbfw7ZydBA9syyE7m_C-2">
          <mxGeometry y="87" width="330" height="86" as="geometry" />
        </mxCell>
        <mxCell id="gAbfw7ZydBA9syyE7m_C-8" value="" style="shape=partialRectangle;html=1;whiteSpace=wrap;connectable=0;strokeColor=inherit;overflow=hidden;fillColor=none;top=0;left=0;bottom=0;right=0;pointerEvents=1;fontSize=16;" vertex="1" parent="gAbfw7ZydBA9syyE7m_C-7">
          <mxGeometry x="70" width="88" height="86" as="geometry">
            <mxRectangle width="88" height="86" as="alternateBounds" />
          </mxGeometry>
        </mxCell>
        <mxCell id="gAbfw7ZydBA9syyE7m_C-9" value="" style="shape=partialRectangle;html=1;whiteSpace=wrap;connectable=0;strokeColor=inherit;overflow=hidden;fillColor=none;top=0;left=0;bottom=0;right=0;pointerEvents=1;fontSize=16;" vertex="1" parent="gAbfw7ZydBA9syyE7m_C-7">
          <mxGeometry x="158" width="84" height="86" as="geometry">
            <mxRectangle width="84" height="86" as="alternateBounds" />
          </mxGeometry>
        </mxCell>
        <mxCell id="gAbfw7ZydBA9syyE7m_C-10" value="" style="shape=partialRectangle;html=1;whiteSpace=wrap;connectable=0;strokeColor=inherit;overflow=hidden;fillColor=none;top=0;left=0;bottom=0;right=0;pointerEvents=1;fontSize=16;" vertex="1" parent="gAbfw7ZydBA9syyE7m_C-7">
          <mxGeometry x="242" width="88" height="86" as="geometry">
            <mxRectangle width="88" height="86" as="alternateBounds" />
          </mxGeometry>
        </mxCell>
        <mxCell id="gAbfw7ZydBA9syyE7m_C-38" value="" style="shape=tableRow;horizontal=0;startSize=70;swimlaneHead=0;swimlaneBody=0;strokeColor=inherit;top=0;left=0;bottom=0;right=0;collapsible=0;dropTarget=0;fillColor=none;points=[[0,0.5],[1,0.5]];portConstraint=eastwest;fontSize=16;" vertex="1" parent="gAbfw7ZydBA9syyE7m_C-2">
          <mxGeometry y="173" width="330" height="87" as="geometry" />
        </mxCell>
        <mxCell id="gAbfw7ZydBA9syyE7m_C-39" value="" style="shape=partialRectangle;html=1;whiteSpace=wrap;connectable=0;strokeColor=inherit;overflow=hidden;fillColor=none;top=0;left=0;bottom=0;right=0;pointerEvents=1;fontSize=16;" vertex="1" parent="gAbfw7ZydBA9syyE7m_C-38">
          <mxGeometry x="70" width="88" height="87" as="geometry">
            <mxRectangle width="88" height="87" as="alternateBounds" />
          </mxGeometry>
        </mxCell>
        <mxCell id="gAbfw7ZydBA9syyE7m_C-40" value="" style="shape=partialRectangle;html=1;whiteSpace=wrap;connectable=0;strokeColor=inherit;overflow=hidden;fillColor=none;top=0;left=0;bottom=0;right=0;pointerEvents=1;fontSize=16;" vertex="1" parent="gAbfw7ZydBA9syyE7m_C-38">
          <mxGeometry x="158" width="84" height="87" as="geometry">
            <mxRectangle width="84" height="87" as="alternateBounds" />
          </mxGeometry>
        </mxCell>
        <mxCell id="gAbfw7ZydBA9syyE7m_C-41" value="" style="shape=partialRectangle;html=1;whiteSpace=wrap;connectable=0;strokeColor=inherit;overflow=hidden;fillColor=none;top=0;left=0;bottom=0;right=0;pointerEvents=1;fontSize=16;" vertex="1" parent="gAbfw7ZydBA9syyE7m_C-38">
          <mxGeometry x="242" width="88" height="87" as="geometry">
            <mxRectangle width="88" height="87" as="alternateBounds" />
          </mxGeometry>
        </mxCell>
        <mxCell id="gAbfw7ZydBA9syyE7m_C-11" value="" style="shape=tableRow;horizontal=0;startSize=70;swimlaneHead=0;swimlaneBody=0;strokeColor=inherit;top=0;left=0;bottom=0;right=0;collapsible=0;dropTarget=0;fillColor=none;points=[[0,0.5],[1,0.5]];portConstraint=eastwest;fontSize=16;" vertex="1" parent="gAbfw7ZydBA9syyE7m_C-2">
          <mxGeometry y="260" width="330" height="87" as="geometry" />
        </mxCell>
        <mxCell id="gAbfw7ZydBA9syyE7m_C-12" value="" style="shape=partialRectangle;html=1;whiteSpace=wrap;connectable=0;strokeColor=inherit;overflow=hidden;fillColor=none;top=0;left=0;bottom=0;right=0;pointerEvents=1;fontSize=16;" vertex="1" parent="gAbfw7ZydBA9syyE7m_C-11">
          <mxGeometry x="70" width="88" height="87" as="geometry">
            <mxRectangle width="88" height="87" as="alternateBounds" />
          </mxGeometry>
        </mxCell>
        <mxCell id="gAbfw7ZydBA9syyE7m_C-13" value="" style="shape=partialRectangle;html=1;whiteSpace=wrap;connectable=0;strokeColor=inherit;overflow=hidden;fillColor=none;top=0;left=0;bottom=0;right=0;pointerEvents=1;fontSize=16;" vertex="1" parent="gAbfw7ZydBA9syyE7m_C-11">
          <mxGeometry x="158" width="84" height="87" as="geometry">
            <mxRectangle width="84" height="87" as="alternateBounds" />
          </mxGeometry>
        </mxCell>
        <mxCell id="gAbfw7ZydBA9syyE7m_C-14" value="" style="shape=partialRectangle;html=1;whiteSpace=wrap;connectable=0;strokeColor=inherit;overflow=hidden;fillColor=none;top=0;left=0;bottom=0;right=0;pointerEvents=1;fontSize=16;" vertex="1" parent="gAbfw7ZydBA9syyE7m_C-11">
          <mxGeometry x="242" width="88" height="87" as="geometry">
            <mxRectangle width="88" height="87" as="alternateBounds" />
          </mxGeometry>
        </mxCell>
        <mxCell id="gAbfw7ZydBA9syyE7m_C-34" value="" style="shape=tableRow;horizontal=0;startSize=70;swimlaneHead=0;swimlaneBody=0;strokeColor=inherit;top=0;left=0;bottom=0;right=0;collapsible=0;dropTarget=0;fillColor=none;points=[[0,0.5],[1,0.5]];portConstraint=eastwest;fontSize=16;" vertex="1" parent="gAbfw7ZydBA9syyE7m_C-2">
          <mxGeometry y="347" width="330" height="87" as="geometry" />
        </mxCell>
        <mxCell id="gAbfw7ZydBA9syyE7m_C-35" value="" style="shape=partialRectangle;html=1;whiteSpace=wrap;connectable=0;strokeColor=inherit;overflow=hidden;fillColor=none;top=0;left=0;bottom=0;right=0;pointerEvents=1;fontSize=16;" vertex="1" parent="gAbfw7ZydBA9syyE7m_C-34">
          <mxGeometry x="70" width="88" height="87" as="geometry">
            <mxRectangle width="88" height="87" as="alternateBounds" />
          </mxGeometry>
        </mxCell>
        <mxCell id="gAbfw7ZydBA9syyE7m_C-36" value="" style="shape=partialRectangle;html=1;whiteSpace=wrap;connectable=0;strokeColor=inherit;overflow=hidden;fillColor=none;top=0;left=0;bottom=0;right=0;pointerEvents=1;fontSize=16;" vertex="1" parent="gAbfw7ZydBA9syyE7m_C-34">
          <mxGeometry x="158" width="84" height="87" as="geometry">
            <mxRectangle width="84" height="87" as="alternateBounds" />
          </mxGeometry>
        </mxCell>
        <mxCell id="gAbfw7ZydBA9syyE7m_C-37" value="" style="shape=partialRectangle;html=1;whiteSpace=wrap;connectable=0;strokeColor=inherit;overflow=hidden;fillColor=none;top=0;left=0;bottom=0;right=0;pointerEvents=1;fontSize=16;" vertex="1" parent="gAbfw7ZydBA9syyE7m_C-34">
          <mxGeometry x="242" width="88" height="87" as="geometry">
            <mxRectangle width="88" height="87" as="alternateBounds" />
          </mxGeometry>
        </mxCell>
      </root>
    </mxGraphModel>
  </diagram>
</mxfile>
